<svg width="383" height="588" viewBox="0 0 383 588" fill="none" xmlns="http://www.w3.org/2000/svg">
<g filter="url(#filter0_b_1186_3878)">
<path d="M369.356 521.367C240.363 521.367 135.793 416.798 135.793 287.804C135.793 158.811 240.363 54.2412 369.356 54.2412" stroke="url(#paint0_radial_1186_3878)" stroke-width="1.14794"/>
</g>
<circle cx="370.314" cy="54.0447" r="11.1221" fill="#0A0A0A" stroke="#676767" stroke-width="1.48294"/>
<circle cx="370.098" cy="521.367" r="11.1221" fill="#0A0A0A" stroke="#676767" stroke-width="1.48294"/>
<line x1="195.358" y1="62.9485" x2="220.568" y2="95.5732" stroke="#676767" stroke-width="0.622856"/>
<g filter="url(#filter1_b_1186_3878)">
<circle cx="174.395" cy="36.4456" r="35.5906" fill="#0A0A0A"/>
<circle cx="174.395" cy="36.4456" r="35.0166" stroke="url(#paint1_radial_1186_3878)" stroke-width="1.14794"/>
</g>
<circle cx="227.754" cy="102.6" r="11.1221" transform="rotate(-37.6167 227.754 102.6)" fill="#0A0A0A" stroke="#CDCDCD" stroke-width="1.48294"/>
<path d="M174.957 29.6038V42.9617H172.936V31.6258H172.857L169.661 33.7129V31.7823L172.994 29.6038H174.957Z" fill="#CDCDCD"/>
<line x1="105.511" y1="178.117" x2="143.285" y2="194.639" stroke="#676767" stroke-width="0.622856"/>
<g filter="url(#filter2_b_1186_3878)">
<circle cx="74.4056" cy="164.948" r="35.5906" transform="rotate(-28.6815 74.4056 164.948)" fill="#0A0A0A"/>
<circle cx="74.4056" cy="164.948" r="35.0166" transform="rotate(-28.6815 74.4056 164.948)" stroke="url(#paint2_radial_1186_3878)" stroke-width="1.14794"/>
</g>
<circle cx="153.083" cy="197.434" r="11.1221" transform="rotate(-66.2981 153.083 197.434)" fill="#0A0A0A" stroke="#CDCDCD" stroke-width="1.48294"/>
<path d="M70.2271 171.531V170.07L74.7471 165.387C75.2297 164.879 75.6276 164.433 75.9407 164.05C76.2581 163.663 76.4951 163.296 76.6516 162.948C76.8081 162.6 76.8864 162.231 76.8864 161.839C76.8864 161.396 76.782 161.013 76.5733 160.691C76.3646 160.365 76.0798 160.115 75.7189 159.941C75.358 159.763 74.9514 159.674 74.4992 159.674C74.0209 159.674 73.6035 159.772 73.2469 159.967C72.8904 160.163 72.6164 160.439 72.4251 160.796C72.2338 161.152 72.1381 161.57 72.1381 162.048H70.214C70.214 161.235 70.401 160.524 70.7749 159.915C71.1489 159.306 71.662 158.835 72.3142 158.5C72.9665 158.161 73.7078 157.991 74.5383 157.991C75.3776 157.991 76.1168 158.158 76.756 158.493C77.3995 158.824 77.9017 159.276 78.2626 159.85C78.6235 160.42 78.804 161.063 78.804 161.781C78.804 162.276 78.7105 162.761 78.5235 163.235C78.3409 163.709 78.0213 164.237 77.5647 164.82C77.1082 165.398 76.4733 166.101 75.6602 166.927L73.0056 169.705V169.803H79.0192V171.531H70.2271Z" fill="#CDCDCD"/>
<line x1="84.5135" y1="290.799" x2="125.741" y2="290.389" stroke="#676767" stroke-width="0.622856"/>
<g filter="url(#filter3_b_1186_3878)">
<circle cx="50.7037" cy="291.553" r="35.5906" transform="rotate(-52.8753 50.7037 291.553)" fill="#0A0A0A"/>
<circle cx="50.7037" cy="291.553" r="35.0166" transform="rotate(-52.8753 50.7037 291.553)" stroke="url(#paint3_radial_1186_3878)" stroke-width="1.14794"/>
</g>
<circle cx="135.707" cy="289.191" r="11.1221" transform="rotate(-90.4919 135.707 289.191)" fill="#0A0A0A" stroke="#CDCDCD" stroke-width="1.48294"/>
<path d="M50.4841 299.135C49.5883 299.135 48.7883 298.981 48.0838 298.672C47.3838 298.363 46.8294 297.935 46.4206 297.387C46.0162 296.835 45.7988 296.196 45.7684 295.47H47.8164C47.8425 295.865 47.9751 296.209 48.2143 296.5C48.4578 296.787 48.7752 297.009 49.1666 297.166C49.5579 297.322 49.9927 297.4 50.471 297.4C50.9972 297.4 51.4624 297.309 51.8668 297.126C52.2756 296.944 52.5952 296.689 52.8256 296.363C53.0561 296.033 53.1713 295.652 53.1713 295.222C53.1713 294.774 53.0561 294.38 52.8256 294.041C52.5995 293.698 52.2669 293.428 51.8277 293.233C51.3929 293.037 50.8667 292.939 50.2493 292.939H49.1209V291.295H50.2493C50.745 291.295 51.1798 291.206 51.5538 291.028C51.932 290.85 52.2277 290.602 52.4408 290.284C52.6539 289.963 52.7604 289.586 52.7604 289.156C52.7604 288.743 52.6669 288.384 52.4799 288.08C52.2973 287.771 52.0364 287.53 51.6972 287.356C51.3624 287.182 50.9667 287.095 50.5102 287.095C50.0753 287.095 49.6688 287.175 49.2905 287.336C48.9165 287.493 48.6122 287.719 48.3774 288.015C48.1425 288.306 48.0164 288.656 47.9991 289.065H46.0489C46.0706 288.343 46.2837 287.708 46.6881 287.16C47.0968 286.612 47.636 286.184 48.3056 285.875C48.9752 285.567 49.7188 285.412 50.5363 285.412C51.3929 285.412 52.1321 285.58 52.7539 285.914C53.38 286.245 53.8627 286.686 54.2018 287.238C54.5453 287.791 54.7149 288.395 54.7106 289.052C54.7149 289.8 54.5062 290.434 54.0844 290.956C53.667 291.478 53.1104 291.828 52.4147 292.006V292.111C53.3017 292.245 53.9888 292.598 54.4758 293.167C54.9671 293.737 55.2106 294.443 55.2063 295.287C55.2106 296.022 55.0063 296.681 54.5932 297.263C54.1844 297.846 53.6257 298.305 52.9169 298.64C52.2082 298.97 51.3972 299.135 50.4841 299.135Z" fill="#CDCDCD"/>
<line x1="107.789" y1="401.507" x2="145.083" y2="383.926" stroke="#676767" stroke-width="0.622856"/>
<g filter="url(#filter4_b_1186_3878)">
<circle cx="77.3811" cy="416.305" r="35.5906" transform="rotate(-77.5468 77.3811 416.305)" fill="#0A0A0A"/>
<circle cx="77.3811" cy="416.305" r="35.0166" transform="rotate(-77.5468 77.3811 416.305)" stroke="url(#paint4_radial_1186_3878)" stroke-width="1.14794"/>
</g>
<circle cx="153.64" cy="378.678" r="11.1221" transform="rotate(-115.163 153.64 378.678)" fill="#0A0A0A" stroke="#CDCDCD" stroke-width="1.48294"/>
<path d="M72.3658 420.32V418.69L78.1381 409.571H79.423V411.972H78.6077L74.4791 418.507V418.611H82.3907V420.32H72.3658ZM78.6991 422.929V419.825L78.7121 419.081V409.571H80.6232V422.929H78.6991Z" fill="#CDCDCD"/>
<line x1="198.283" y1="516.758" x2="222.996" y2="483.755" stroke="#676767" stroke-width="0.622856"/>
<g filter="url(#filter5_b_1186_3878)">
<circle cx="178.348" cy="537.848" r="35.5906" transform="rotate(-105.48 178.348 537.848)" fill="#0A0A0A"/>
<circle cx="178.348" cy="537.848" r="35.0166" transform="rotate(-105.48 178.348 537.848)" stroke="url(#paint5_radial_1186_3878)" stroke-width="1.14794"/>
</g>
<circle cx="228.096" cy="475.11" r="11.1221" transform="rotate(-143.096 228.096 475.11)" fill="#0A0A0A" stroke="#CDCDCD" stroke-width="1.48294"/>
<path d="M177.888 544.305C177.07 544.305 176.336 544.148 175.683 543.835C175.035 543.518 174.518 543.083 174.131 542.531C173.744 541.978 173.537 541.348 173.511 540.639H175.468C175.516 541.213 175.77 541.685 176.231 542.054C176.692 542.424 177.244 542.609 177.888 542.609C178.401 542.609 178.855 542.491 179.251 542.257C179.651 542.018 179.964 541.689 180.19 541.272C180.421 540.854 180.536 540.378 180.536 539.843C180.536 539.3 180.419 538.815 180.184 538.389C179.949 537.963 179.625 537.628 179.212 537.384C178.803 537.141 178.334 537.017 177.803 537.013C177.399 537.013 176.992 537.082 176.583 537.221C176.175 537.361 175.844 537.543 175.592 537.769L173.746 537.495L174.496 530.764H181.84V532.493H176.172L175.749 536.23H175.827C176.088 535.978 176.433 535.767 176.864 535.597C177.299 535.428 177.764 535.343 178.26 535.343C179.073 535.343 179.797 535.536 180.432 535.923C181.071 536.31 181.573 536.839 181.938 537.508C182.308 538.174 182.49 538.939 182.486 539.804C182.49 540.67 182.295 541.441 181.899 542.12C181.508 542.798 180.964 543.333 180.269 543.724C179.577 544.111 178.784 544.305 177.888 544.305Z" fill="#CDCDCD"/>
<defs>
<filter id="filter0_b_1186_3878" x="130.627" y="49.0755" width="243.321" height="477.458" filterUnits="userSpaceOnUse" color-interpolation-filters="sRGB">
<feFlood flood-opacity="0" result="BackgroundImageFix"/>
<feGaussianBlur in="BackgroundImageFix" stdDeviation="2.29588"/>
<feComposite in2="SourceAlpha" operator="in" result="effect1_backgroundBlur_1186_3878"/>
<feBlend mode="normal" in="SourceGraphic" in2="effect1_backgroundBlur_1186_3878" result="shape"/>
</filter>
<filter id="filter1_b_1186_3878" x="134.213" y="-3.73677" width="80.3642" height="80.3647" filterUnits="userSpaceOnUse" color-interpolation-filters="sRGB">
<feFlood flood-opacity="0" result="BackgroundImageFix"/>
<feGaussianBlur in="BackgroundImageFix" stdDeviation="2.29588"/>
<feComposite in2="SourceAlpha" operator="in" result="effect1_backgroundBlur_1186_3878"/>
<feBlend mode="normal" in="SourceGraphic" in2="effect1_backgroundBlur_1186_3878" result="shape"/>
</filter>
<filter id="filter2_b_1186_3878" x="34.2168" y="124.759" width="80.3778" height="80.3778" filterUnits="userSpaceOnUse" color-interpolation-filters="sRGB">
<feFlood flood-opacity="0" result="BackgroundImageFix"/>
<feGaussianBlur in="BackgroundImageFix" stdDeviation="2.29588"/>
<feComposite in2="SourceAlpha" operator="in" result="effect1_backgroundBlur_1186_3878"/>
<feBlend mode="normal" in="SourceGraphic" in2="effect1_backgroundBlur_1186_3878" result="shape"/>
</filter>
<filter id="filter3_b_1186_3878" x="10.5196" y="251.369" width="80.3681" height="80.3686" filterUnits="userSpaceOnUse" color-interpolation-filters="sRGB">
<feFlood flood-opacity="0" result="BackgroundImageFix"/>
<feGaussianBlur in="BackgroundImageFix" stdDeviation="2.29588"/>
<feComposite in2="SourceAlpha" operator="in" result="effect1_backgroundBlur_1186_3878"/>
<feBlend mode="normal" in="SourceGraphic" in2="effect1_backgroundBlur_1186_3878" result="shape"/>
</filter>
<filter id="filter4_b_1186_3878" x="37.1914" y="376.115" width="80.3798" height="80.3798" filterUnits="userSpaceOnUse" color-interpolation-filters="sRGB">
<feFlood flood-opacity="0" result="BackgroundImageFix"/>
<feGaussianBlur in="BackgroundImageFix" stdDeviation="2.29588"/>
<feComposite in2="SourceAlpha" operator="in" result="effect1_backgroundBlur_1186_3878"/>
<feBlend mode="normal" in="SourceGraphic" in2="effect1_backgroundBlur_1186_3878" result="shape"/>
</filter>
<filter id="filter5_b_1186_3878" x="138.157" y="497.657" width="80.3827" height="80.3827" filterUnits="userSpaceOnUse" color-interpolation-filters="sRGB">
<feFlood flood-opacity="0" result="BackgroundImageFix"/>
<feGaussianBlur in="BackgroundImageFix" stdDeviation="2.29588"/>
<feComposite in2="SourceAlpha" operator="in" result="effect1_backgroundBlur_1186_3878"/>
<feBlend mode="normal" in="SourceGraphic" in2="effect1_backgroundBlur_1186_3878" result="shape"/>
</filter>
<radialGradient id="paint0_radial_1186_3878" cx="0" cy="0" r="1" gradientUnits="userSpaceOnUse" gradientTransform="translate(370.694 6.7594) rotate(93.953) scale(554.304 3.87669e+07)">
<stop stop-color="white" stop-opacity="0"/>
<stop offset="0.63" stop-color="white"/>
<stop offset="1" stop-color="white" stop-opacity="0.127026"/>
</radialGradient>
<radialGradient id="paint1_radial_1186_3878" cx="0" cy="0" r="1" gradientUnits="userSpaceOnUse" gradientTransform="translate(141.66 36.3866) scale(64.3295 2.24954e+06)">
<stop stop-color="white" stop-opacity="0"/>
<stop offset="0.63" stop-color="white"/>
<stop offset="1" stop-color="white" stop-opacity="0.127026"/>
</radialGradient>
<radialGradient id="paint2_radial_1186_3878" cx="0" cy="0" r="1" gradientUnits="userSpaceOnUse" gradientTransform="translate(41.6699 164.889) scale(64.3295 2.24954e+06)">
<stop stop-color="white" stop-opacity="0"/>
<stop offset="0.63" stop-color="white"/>
<stop offset="1" stop-color="white" stop-opacity="0.127026"/>
</radialGradient>
<radialGradient id="paint3_radial_1186_3878" cx="0" cy="0" r="1" gradientUnits="userSpaceOnUse" gradientTransform="translate(17.968 291.494) scale(64.3295 2.24954e+06)">
<stop stop-color="white" stop-opacity="0"/>
<stop offset="0.63" stop-color="white"/>
<stop offset="1" stop-color="white" stop-opacity="0.127026"/>
</radialGradient>
<radialGradient id="paint4_radial_1186_3878" cx="0" cy="0" r="1" gradientUnits="userSpaceOnUse" gradientTransform="translate(44.6454 416.246) scale(64.3295 2.24954e+06)">
<stop stop-color="white" stop-opacity="0"/>
<stop offset="0.63" stop-color="white"/>
<stop offset="1" stop-color="white" stop-opacity="0.127026"/>
</radialGradient>
<radialGradient id="paint5_radial_1186_3878" cx="0" cy="0" r="1" gradientUnits="userSpaceOnUse" gradientTransform="translate(145.613 537.789) scale(64.3295 2.24954e+06)">
<stop stop-color="white" stop-opacity="0"/>
<stop offset="0.63" stop-color="white"/>
<stop offset="1" stop-color="white" stop-opacity="0.127026"/>
</radialGradient>
</defs>
</svg>
